<svg width="900" height="900" viewBox="0 0 900 900" fill="none" xmlns="http://www.w3.org/2000/svg">
<g filter="url(#filter0_f_3316_44)">
<rect x="200" y="200" width="500" height="500" rx="120" fill="#001C76" fill-opacity="0.6"/>
</g>
<g filter="url(#filter1_iiii_3316_44)">
<rect x="95" y="100" width="500" height="500" rx="120" fill="url(#paint0_linear_3316_44)"/>
</g>
<g filter="url(#filter2_f_3316_44)">
<path d="M300.685 420.165L315.779 435.259L361.027 390L315.779 344.741L300.685 359.835L330.861 390L300.685 420.165ZM407 411.333H364.333V432.667H407V411.333Z" fill="url(#paint1_linear_3316_44)"/>
<path fill-rule="evenodd" clip-rule="evenodd" d="M268.333 283.333C262.675 283.333 257.249 285.581 253.248 289.582C249.248 293.582 247 299.009 247 304.667V475.333C247 480.991 249.248 486.417 253.248 490.418C257.249 494.419 262.675 496.667 268.333 496.667H481.667C487.325 496.667 492.751 494.419 496.752 490.418C500.752 486.417 503 480.991 503 475.333V304.667C503 299.009 500.752 293.582 496.752 289.582C492.751 285.581 487.325 283.333 481.667 283.333H268.333ZM481.667 304.667H268.333V475.333H481.667V304.667Z" fill="url(#paint2_linear_3316_44)"/>
</g>
<g filter="url(#filter3_iiii_3316_44)">
<path d="M270.685 380.165L285.779 395.259L331.027 350L285.779 304.741L270.685 319.835L300.861 350L270.685 380.165ZM377 371.333H334.333V392.667H377V371.333Z" fill="url(#paint3_linear_3316_44)"/>
<path fill-rule="evenodd" clip-rule="evenodd" d="M238.333 243.333C232.675 243.333 227.249 245.581 223.248 249.582C219.248 253.582 217 259.009 217 264.667V435.333C217 440.991 219.248 446.417 223.248 450.418C227.249 454.419 232.675 456.667 238.333 456.667H451.667C457.325 456.667 462.751 454.419 466.752 450.418C470.752 446.417 473 440.991 473 435.333V264.667C473 259.009 470.752 253.582 466.752 249.582C462.751 245.581 457.325 243.333 451.667 243.333H238.333ZM451.667 264.667H238.333V435.333H451.667V264.667Z" fill="url(#paint4_linear_3316_44)"/>
</g>
<defs>
<filter id="filter0_f_3316_44" x="0" y="0" width="900" height="900" filterUnits="userSpaceOnUse" color-interpolation-filters="sRGB">
<feFlood flood-opacity="0" result="BackgroundImageFix"/>
<feBlend mode="normal" in="SourceGraphic" in2="BackgroundImageFix" result="shape"/>
<feGaussianBlur stdDeviation="100" result="effect1_foregroundBlur_3316_44"/>
</filter>
<filter id="filter1_iiii_3316_44" x="93" y="96" width="506" height="508" filterUnits="userSpaceOnUse" color-interpolation-filters="sRGB">
<feFlood flood-opacity="0" result="BackgroundImageFix"/>
<feBlend mode="normal" in="SourceGraphic" in2="BackgroundImageFix" result="shape"/>
<feColorMatrix in="SourceAlpha" type="matrix" values="0 0 0 0 0 0 0 0 0 0 0 0 0 0 0 0 0 0 127 0" result="hardAlpha"/>
<feOffset dx="4" dy="4"/>
<feGaussianBlur stdDeviation="6"/>
<feComposite in2="hardAlpha" operator="arithmetic" k2="-1" k3="1"/>
<feColorMatrix type="matrix" values="0 0 0 0 0.75 0 0 0 0 0.799738 0 0 0 0 1 0 0 0 1 0"/>
<feBlend mode="normal" in2="shape" result="effect1_innerShadow_3316_44"/>
<feColorMatrix in="SourceAlpha" type="matrix" values="0 0 0 0 0 0 0 0 0 0 0 0 0 0 0 0 0 0 127 0" result="hardAlpha"/>
<feOffset dx="-2" dy="-4"/>
<feGaussianBlur stdDeviation="6"/>
<feComposite in2="hardAlpha" operator="arithmetic" k2="-1" k3="1"/>
<feColorMatrix type="matrix" values="0 0 0 0 0 0 0 0 0 0.186603 0 0 0 0 1 0 0 0 1 0"/>
<feBlend mode="normal" in2="effect1_innerShadow_3316_44" result="effect2_innerShadow_3316_44"/>
<feColorMatrix in="SourceAlpha" type="matrix" values="0 0 0 0 0 0 0 0 0 0 0 0 0 0 0 0 0 0 127 0" result="hardAlpha"/>
<feOffset dx="2" dy="2"/>
<feGaussianBlur stdDeviation="3"/>
<feComposite in2="hardAlpha" operator="arithmetic" k2="-1" k3="1"/>
<feColorMatrix type="matrix" values="0 0 0 0 1 0 0 0 0 1 0 0 0 0 1 0 0 0 0.5 0"/>
<feBlend mode="normal" in2="effect2_innerShadow_3316_44" result="effect3_innerShadow_3316_44"/>
<feColorMatrix in="SourceAlpha" type="matrix" values="0 0 0 0 0 0 0 0 0 0 0 0 0 0 0 0 0 0 127 0" result="hardAlpha"/>
<feOffset dx="-1" dy="-2"/>
<feGaussianBlur stdDeviation="3"/>
<feComposite in2="hardAlpha" operator="arithmetic" k2="-1" k3="1"/>
<feColorMatrix type="matrix" values="0 0 0 0 0.0289236 0 0 0 0 0.189381 0 0 0 0 0.991667 0 0 0 0.3 0"/>
<feBlend mode="normal" in2="effect3_innerShadow_3316_44" result="effect4_innerShadow_3316_44"/>
</filter>
<filter id="filter2_f_3316_44" x="197" y="233.333" width="356" height="313.333" filterUnits="userSpaceOnUse" color-interpolation-filters="sRGB">
<feFlood flood-opacity="0" result="BackgroundImageFix"/>
<feBlend mode="normal" in="SourceGraphic" in2="BackgroundImageFix" result="shape"/>
<feGaussianBlur stdDeviation="25" result="effect1_foregroundBlur_3316_44"/>
</filter>
<filter id="filter3_iiii_3316_44" x="207" y="237.333" width="276" height="229.333" filterUnits="userSpaceOnUse" color-interpolation-filters="sRGB">
<feFlood flood-opacity="0" result="BackgroundImageFix"/>
<feBlend mode="normal" in="SourceGraphic" in2="BackgroundImageFix" result="shape"/>
<feColorMatrix in="SourceAlpha" type="matrix" values="0 0 0 0 0 0 0 0 0 0 0 0 0 0 0 0 0 0 127 0" result="hardAlpha"/>
<feOffset dx="-10" dy="-6"/>
<feGaussianBlur stdDeviation="12"/>
<feComposite in2="hardAlpha" operator="arithmetic" k2="-1" k3="1"/>
<feColorMatrix type="matrix" values="0 0 0 0 0.321569 0 0 0 0 0.343726 0 0 0 0 0.764706 0 0 0 0.8 0"/>
<feBlend mode="normal" in2="shape" result="effect1_innerShadow_3316_44"/>
<feColorMatrix in="SourceAlpha" type="matrix" values="0 0 0 0 0 0 0 0 0 0 0 0 0 0 0 0 0 0 127 0" result="hardAlpha"/>
<feOffset dx="10" dy="10"/>
<feGaussianBlur stdDeviation="12"/>
<feComposite in2="hardAlpha" operator="arithmetic" k2="-1" k3="1"/>
<feColorMatrix type="matrix" values="0 0 0 0 1 0 0 0 0 1 0 0 0 0 1 0 0 0 0.8 0"/>
<feBlend mode="normal" in2="effect1_innerShadow_3316_44" result="effect2_innerShadow_3316_44"/>
<feColorMatrix in="SourceAlpha" type="matrix" values="0 0 0 0 0 0 0 0 0 0 0 0 0 0 0 0 0 0 127 0" result="hardAlpha"/>
<feOffset dx="2" dy="2"/>
<feGaussianBlur stdDeviation="1"/>
<feComposite in2="hardAlpha" operator="arithmetic" k2="-1" k3="1"/>
<feColorMatrix type="matrix" values="0 0 0 0 1 0 0 0 0 1 0 0 0 0 1 0 0 0 1 0"/>
<feBlend mode="normal" in2="effect2_innerShadow_3316_44" result="effect3_innerShadow_3316_44"/>
<feColorMatrix in="SourceAlpha" type="matrix" values="0 0 0 0 0 0 0 0 0 0 0 0 0 0 0 0 0 0 127 0" result="hardAlpha"/>
<feOffset dx="-2" dy="-2"/>
<feGaussianBlur stdDeviation="1"/>
<feComposite in2="hardAlpha" operator="arithmetic" k2="-1" k3="1"/>
<feColorMatrix type="matrix" values="0 0 0 0 0.14902 0 0 0 0 0.249673 0 0 0 0 0.580392 0 0 0 0.7 0"/>
<feBlend mode="normal" in2="effect3_innerShadow_3316_44" result="effect4_innerShadow_3316_44"/>
</filter>
<linearGradient id="paint0_linear_3316_44" x1="124" y1="141" x2="562" y2="562" gradientUnits="userSpaceOnUse">
<stop stop-color="#8AAFFF"/>
<stop offset="1" stop-color="#133AFF"/>
</linearGradient>
<linearGradient id="paint1_linear_3316_44" x1="389.797" y1="409.928" x2="389.731" y2="438.809" gradientUnits="userSpaceOnUse">
<stop stop-color="#000D4E" stop-opacity="0.8"/>
<stop offset="1" stop-color="#000D4E" stop-opacity="0.2"/>
</linearGradient>
<linearGradient id="paint2_linear_3316_44" x1="461.577" y1="436.967" x2="461.423" y2="505.033" gradientUnits="userSpaceOnUse">
<stop stop-color="#000D4E" stop-opacity="0.8"/>
<stop offset="1" stop-color="#000D4E" stop-opacity="0.2"/>
</linearGradient>
<linearGradient id="paint3_linear_3316_44" x1="272.414" y1="305.936" x2="379.938" y2="393.415" gradientUnits="userSpaceOnUse">
<stop stop-color="#F1F5F2"/>
<stop offset="1" stop-color="#B6C5CA"/>
</linearGradient>
<linearGradient id="paint4_linear_3316_44" x1="221.163" y1="246.148" x2="475.631" y2="457.669" gradientUnits="userSpaceOnUse">
<stop stop-color="#F1F5F2"/>
<stop offset="1" stop-color="#B6C5CA"/>
</linearGradient>
</defs>
</svg>
